#!OML:ASF Y:\EmotionMaleHayes\Project 1\Capture day 1\Session 1\Male1.ASF
:FULLY-SPECIFIED
:DEGREES
931
root 12.7882 17.0499 6.30027 4.89131 16.0306 -10.1629
lowerback 11.8739 3.68343 -10.1729
upperback 5.85015 3.73831 -7.10817
thorax -0.592593 1.79406 -2.2458
lowerneck -19.7886 11.0365 9.04506
upperneck 26.9365 16.4651 -10.8163
head 14.2732 6.66909 -2.66595
rclavicle 7.31528e-014 1.27222e-014
rhumerus -43.5506 30.7673 -100.158
rradius 68.9737
rwrist -1.1146
rhand -9.17101 -30.8458
rfingers 7.12502
rthumb 16.7818 -60.1405
lclavicle 7.31528e-014 1.27222e-014
lhumerus -42.9643 -23.5409 76.7296
lradius 38.9513
lwrist -19.1176
lhand -32.4671 -17.3749
lfingers 7.12502
lthumb -5.69969 12.5284
rfemur 3.79603 -6.14453 20.0034
rtibia 19.7613
rfoot -18.8018 -6.43657
rtoes -1.05349
lfemur -22.3894 18.3131 -11.7812
ltibia 32.4544
lfoot -17.0341 4.84885
ltoes 10.8483
932
root 12.8468 17.0605 6.37805 4.99358 16.2036 -9.70655
lowerback 11.7188 3.50255 -10.7339
upperback 5.75366 3.45684 -7.26673
thorax -0.615025 1.64985 -2.06582
lowerneck -19.4434 11.2548 9.16487
upperneck 26.5084 16.847 -11.2361
head 14.1288 6.81911 -2.77711
rclavicle 3.18055e-015 1.59028e-014
rhumerus -44.116 30.4346 -100.036
rradius 67.5308
rwrist -0.537508
rhand -8.82083 -30.566
rfingers 7.12502
rthumb 17.1189 -59.8318
lclavicle 3.18055e-015 1.59028e-014
lhumerus -41.4076 -22.3324 75.33
lradius 39.0153
lwrist -17.7844
lhand -32.6283 -17.3702
lfingers 7.12502
lthumb -5.85535 12.5289
rfemur 3.11573 -6.10755 19.5057
rtibia 19.9918
rfoot -18.7951 -6.01749
rtoes -0.882455
lfemur -21.7586 17.782 -12.3753
ltibia 31.943
lfoot -17.1846 4.86069
ltoes 10.9987
933
root 12.901 17.0703 6.45752 4.99606 16.3032 -9.26848
lowerback 11.5984 3.44505 -11.2717
upperback 5.6795 3.33692 -7.48645
thorax -0.630651 1.58705 -1.98829
lowerneck -19.1379 11.3989 9.6223
upperneck 26.2103 17.0474 -11.7139
head 14.0712 6.9131 -3.00197
rclavicle -3.02153e-014 -7.63333e-014
rhumerus -44.7661 29.8609 -99.9832
rradius 66.2986
rwrist -0.252119
rhand -8.52428 -30.5523
rfingers 7.12502
rthumb 17.4043 -59.7931
lclavicle -3.02153e-014 -7.63333e-014
lhumerus -40.0532 -21.7253 74.1214
lradius 39.4212
lwrist -15.4526
lhand -31.8432 -17.6408
lfingers 7.12502
lthumb -5.09736 12.2779
rfemur 2.5283 -6.17815 19.0196
rtibia 20.1485
rfoot -18.5631 -5.87504
rtoes -1.81594
lfemur -21.0242 17.4921 -12.9203
ltibia 31.507
lfoot -17.1591 4.94429
ltoes 9.60876
934
root 12.9498 17.0815 6.53903 4.82694 16.3929 -9.04381
lowerback 11.5774 3.55227 -11.6521
upperback 5.63227 3.43501 -7.6991
thorax -0.675012 1.63543 -2.02402
lowerneck -19.1563 11.3961 10.0022
upperneck 26.2802 16.9022 -11.6256
head 14.1131 6.89623 -3.05776
rclavicle 2.38542e-014 -2.8625e-014
rhumerus -45.4158 28.9355 -99.9503
rradius 65.2826
rwrist -0.216768
rhand -8.35881 -30.834
rfingers 7.12502
rthumb 17.5636 -60.0606
lclavicle 2.38542e-014 -2.8625e-014
lhumerus -38.8836 -22.0381 73.1619
lradius 40.1595
lwrist -12.5569
lhand -31.6702 -17.6024
lfingers 7.12502
lthumb -4.9303 12.3203
rfemur 2.11012 -5.85568 18.8532
rtibia 20.2545
rfoot -18.7039 -5.605
rtoes 0.952988
lfemur -20.2051 17.3355 -13.1159
ltibia 31.1637
lfoot -17.0575 5.00983
ltoes 7.84071
935
root 12.998 17.0926 6.61733 4.70522 16.645 -8.78334
lowerback 11.5735 3.32778 -12.4213
upperback 5.62221 3.06464 -7.5273
thorax -0.70192 1.43722 -1.37809
lowerneck -19.5517 11.6131 9.41263
upperneck 26.4652 17.2855 -11.2388
head 14.2159 7.02214 -2.71352
rclavicle 2.06736e-014 7.31528e-014
rhumerus -46.0438 29.2406 -99.641
rradius 64.2625
rwrist -0.331663
rhand -8.22958 -31.1016
rfingers 7.12502
rthumb 17.6879 -60.3171
lclavicle 2.06736e-014 7.31528e-014
lhumerus -37.9964 -20.7661 72.5904
lradius 40.8859
lwrist -9.97669
lhand -31.3533 -17.6722
lfingers 7.12502
lthumb -4.62426 12.2573
rfemur 1.58028 -4.76501 18.9909
rtibia 20.4524
rfoot -19.1637 -6.1814
rtoes 3.31455
lfemur -19.5003 16.9486 -13.3732
ltibia 30.8319
lfoot -17.027 5.20583
ltoes 5.46353
936
root 13.0519 17.1004 6.69411 4.68914 17.1002 -8.2312
lowerback 11.505 3.04649 -12.7912
upperback 5.65696 2.68152 -7.81875
thorax -0.595193 1.24448 -1.43456
lowerneck -19.4247 11.8419 9.5547
upperneck 26.2852 17.646 -11.4969
head 14.2081 7.16619 -2.76058
rclavicle -4.6118e-014 6.99722e-014
rhumerus -46.4713 28.7538 -99.5987
rradius 63.121
rwrist -0.300099
rhand -8.04671 -31.3579
rfingers 7.12502
rthumb 17.8639 -60.5574
lclavicle -4.6118e-014 6.99722e-014
lhumerus -36.9673 -20.2609 71.598
lradius 41.781
lwrist -6.97733
lhand -29.9044 -17.7916
lfingers 7.12502
lthumb -3.22513 12.1638
rfemur 1.03293 -4.34521 18.6292
rtibia 20.6648
rfoot -19.2358 -6.97094
rtoes 2.25988
lfemur -18.8489 16.3375 -14.0451
ltibia 30.4573
lfoot -17.129 5.19531
ltoes 3.89762
937
root 13.0974 17.1082 6.77494 4.73015 17.0119 -7.58856
lowerback 11.2722 3.15046 -13.4533
upperback 5.60888 2.7893 -8.12357
thorax -0.527422 1.29033 -1.41114
lowerneck -18.948 11.8759 9.79746
upperneck 25.8427 17.7081 -11.8735
head 14.0023 7.20935 -2.94919
rclavicle 6.04305e-014 -2.8625e-014
rhumerus -46.944 27.8055 -99.3132
rradius 62.0273
rwrist -0.27697
rhand -7.91288 -31.2943
rfingers 7.12502
rthumb 17.9927 -60.482
lclavicle 6.04305e-014 -2.8625e-014
lhumerus -35.9143 -20.5476 70.855
lradius 42.7039
lwrist -4.07064
lhand -28.3384 -18.1079
lfingers 7.12502
lthumb -1.71275 11.865
rfemur 0.397192 -5.12217 17.5898
rtibia 20.9797
rfoot -18.7986 -6.18236
rtoes 1.07894
lfemur -17.9812 16.307 -14.7655
ltibia 29.9188
lfoot -17.2386 5.1481
ltoes 2.73271
938
root 13.149 17.1152 6.85429 4.727 17.2067 -7.13081
lowerback 11.1245 3.19132 -13.7967
upperback 5.60155 2.84028 -8.40107
thorax -0.450936 1.31294 -1.52523
lowerneck -18.858 11.8411 10.007
upperneck 25.591 17.5692 -11.9197
head 13.8853 7.17903 -3.03063
rclavicle -7.79236e-014 -6.36111e-015
rhumerus -47.5161 26.9384 -99.0081
rradius 61.2407
rwrist -0.473165
rhand -7.69813 -31.1641
rfingers 7.12502
rthumb 18.1993 -60.3327
lclavicle -7.79236e-014 -6.36111e-015
lhumerus -34.8009 -21.0088 70.1646
lradius 43.5941
lwrist -1.75166
lhand -27.2134 -18.2209
lfingers 7.12502
lthumb -0.626219 11.758
rfemur -0.21128 -6.18593 16.6891
rtibia 21.3359
rfoot -18.5066 -4.91155
rtoes 1.19821
lfemur -17.2138 15.9625 -15.3004
ltibia 29.3989
lfoot -17.346 5.08502
ltoes 2.12486
939
root 13.205 17.1223 6.93307 4.61184 17.5401 -6.796
lowerback 11.0836 3.10835 -14.0919
upperback 5.61834 2.71826 -8.52083
thorax -0.401401 1.24876 -1.47889
lowerneck -18.7852 11.9075 9.96411
upperneck 25.4226 17.6674 -11.9443
head 13.8106 7.22354 -3.01323
rclavicle -1.27222e-014 -3.49861e-014
rhumerus -48.2453 26.5425 -98.725
rradius 60.6611
rwrist -1.04676
rhand -7.49817 -31.73
rfingers 7.12502
rthumb 18.3916 -60.8806
lclavicle -1.27222e-014 -3.49861e-014
lhumerus -33.8845 -21.0903 69.6632
lradius 44.5106
lwrist 0.181531
lhand -25.849 -17.9423
lfingers 7.12502
lthumb 0.691617 12.0363
rfemur -0.614236 -5.69766 16.5435
rtibia 21.3688
rfoot -18.5365 -5.34275
rtoes 0.225561
lfemur -16.4148 15.5634 -15.669
ltibia 28.9435
lfoot -17.5853 4.77506
ltoes 3.66249
940
root 13.264 17.129 7.01136 4.3671 17.8325 -6.49323
lowerback 11.1037 2.98026 -14.4264
upperback 5.66942 2.52631 -8.55348
thorax -0.347004 1.14621 -1.31203
lowerneck -18.7077 12.0537 9.75516
upperneck 25.3546 17.9482 -11.9505
head 13.7822 7.32849 -2.92525
rclavicle -1.27222e-014 -3.81667e-014
rhumerus -48.8088 26.384 -98.3849
rradius 59.8579
rwrist -1.68762
rhand -7.53608 -32.5757
rfingers 7.12502
rthumb 18.3552 -61.7297
lclavicle -1.27222e-014 -3.81667e-014
lhumerus -33.0022 -20.7204 69.2705
lradius 45.2588
lwrist 1.64066
lhand -24.3466 -17.9962
lfingers 7.12502
lthumb 2.1426 11.9727
rfemur -0.949761 -5.63237 16.2719
rtibia 21.5003
rfoot -18.3895 -5.84103
rtoes -2.2725
lfemur -15.4877 15.2585 -15.9946
ltibia 28.5662
lfoot -17.9308 4.45492
ltoes 5.83832
941
root 13.3214 17.1353 7.09041 4.15498 18.1603 -6.23451
lowerback 11.0199 2.84684 -14.7018
upperback 5.78513 2.36749 -8.60461
thorax -0.16365 1.05363 -1.19497
lowerneck -19.0731 12.1488 9.45058
upperneck 25.4242 18.0439 -11.5783
head 13.8169 7.36535 -2.69646
rclavicle -7.15625e-014 -1.59028e-014
rhumerus -49.1742 26.1583 -97.9038
rradius 59.051
rwrist -2.2419
rhand -7.39399 -32.998
rfingers 7.12502
rthumb 18.4919 -62.1391
lclavicle -7.15625e-014 -1.59028e-014
lhumerus -31.8494 -20.4108 68.802
lradius 45.7566
lwrist 2.40967
lhand -23.6654 -18.449
lfingers 7.12502
lthumb 2.8005 11.5124
rfemur -1.38255 -5.43145 15.9938
rtibia 21.7987
rfoot -18.5977 -5.6563
rtoes -0.0856262
lfemur -14.6225 14.739 -16.2958
ltibia 28.1733
lfoot -18.1104 4.52231
ltoes 5.2002
942
root 13.3768 17.1414 7.16995 4.09489 18.5287 -5.94008
lowerback 10.8314 2.69808 -15.0875
upperback 5.8643 2.19686 -8.62449
thorax 0.0373355 0.951745 -0.982259
lowerneck -19.0119 12.2724 9.11194
upperneck 25.0839 18.2468 -11.488
head 13.6375 7.44851 -2.56735
rclavicle -8.11041e-014 -2.22639e-014
rhumerus -49.5493 25.8668 -97.3536
rradius 58.2564
rwrist -2.63478
rhand -7.13453 -33.2363
rfingers 7.12502
rthumb 18.7414 -62.3535
lclavicle -8.11041e-014 -2.22639e-014
lhumerus -30.6228 -20.027 68.3379
lradius 46.1008
lwrist 2.44081
lhand -23.2118 -19.2652
lfingers 7.12502
lthumb 3.23852 10.6899
rfemur -2.04403 -3.42808 16.2885
rtibia 22.269
rfoot -19.6434 -6.50956
rtoes 4.46205
lfemur -13.8304 14.0417 -16.713
ltibia 27.5948
lfoot -17.9617 4.82085
ltoes 3.01517
943
root 13.4266 17.1497 7.24972 3.88587 18.5804 -5.78208
lowerback 10.7085 2.65876 -15.4902
upperback 5.88765 2.1415 -8.59577
thorax 0.1302 0.91006 -0.727778
lowerneck -19.0282 12.4001 9.05766
upperneck 25.0821 18.5233 -11.6963
head 13.6979 7.53369 -2.57733
rclavicle -1.11319e-014 0
rhumerus -49.8624 25.4234 -96.8758
rradius 57.2236
rwrist -2.70629
rhand -7.11979 -33.428
rfingers 7.12502
rthumb 18.7556 -62.5438
lclavicle -1.11319e-014 0
lhumerus -29.4566 -19.3335 67.9269
lradius 46.3725
lwrist 1.79043
lhand -22.4525 -20.1269
lfingers 7.12502
lthumb 3.97185 9.81582
rfemur -2.5201 -5.44025 15.4235
rtibia 22.324
rfoot -18.569 -4.77583
rtoes 2.04201
lfemur -12.7982 13.7738 -16.8745
ltibia 26.9266
lfoot -17.7302 4.97857
ltoes 1.34013
944
root 13.4897 17.1543 7.32794 3.56003 18.8933 -5.81792
lowerback 10.6893 2.57575 -15.4584
upperback 5.94632 2.05308 -8.52946
thorax 0.21135 0.860662 -0.661004
lowerneck -19.626 12.4459 8.98695
upperneck 25.7304 18.6022 -11.421
head 14.0612 7.53609 -2.41601
rclavicle -5.88403e-014 -2.8625e-014
rhumerus -50.401 24.9294 -96.3427
rradius 56.4832
rwrist -2.78675
rhand -6.86838 -34.1216
rfingers 7.12502
rthumb 18.9974 -63.2138
lclavicle -5.88403e-014 -2.8625e-014
lhumerus -28.272 -18.7786 67.7328
lradius 46.6263
lwrist 0.793551
lhand -22.2018 -20.7027
lfingers 7.12502
lthumb 4.21387 9.23537
rfemur -3.01021 -5.80972 15.3308
rtibia 22.624
rfoot -18.3579 -4.43751
rtoes 0.514518
lfemur -11.8666 13.1779 -16.8876
ltibia 26.4366
lfoot -17.718 5.09417
ltoes 0.360414
